# xmcd
#
# Track frame offsets:
#	150
#	16255
#	31557
#	44925
#	58492
#	75275
#	85737
#	103192
#	124080
#	136252
#	151232
#	164260
#	190312
#	209117
#	223972
#	252992
#	268835
#	289887
#	305982
#
# Disc length: 4443 seconds
#
# Revision: 2
# Processed by: cddbd v1.4PL0 Copyright (c) Steve Scherf et al.
# Submitted via: CDmax 1.9
#
DISCID=23115913
DTITLE=Louisiana Red - Midnight Rambler
DYEAR=1996
DGENRE=Blues
TTITLE0=The Whole World
TTITLE1=Had A Date With Barbara Last Night
TTITLE2=First Degree
TTITLE3=Sweetblood Call
TTITLE4=I Was Out Walking
TTITLE5=Thirty Dirty Women
TTITLE6=King Bee
TTITLE7=Death Of Ealase
TTITLE8=Who Been Fooling You
TTITLE9=Going Home
TTITLE10=Too Poor To Die
TTITLE11=Standing At Your Door
TTITLE12=I Been Down So Long
TTITLE13=Turkey Killer
TTITLE14=Walk All Over Georgia
TTITLE15=Look At The Children Run
TTITLE16=Recreation Blues
TTITLE17=Midnight Rambler
TTITLE18=When My Mama Was Living
EXTD=
EXTT0=(Cooper/Red)
EXTT1=(Red)
EXTT2=(Cooper/Louisiana Red)
EXTT3=(Cooper/Red)
EXTT4=(Red)
EXTT5=(Cooper/Red)
EXTT6=(Harpo)
EXTT7=(Red)
EXTT8=(Red)
EXTT9=(Cooper/Louisiana Red)
EXTT10=(Louisiana Red)
EXTT11=(Cooper)
EXTT12=(Cooper)
EXTT13=(Cooper)
EXTT14=(Cooper)
EXTT15=(Cooper)
EXTT16=(Cooper)
EXTT17=(Cooper)
EXTT18=(Cooper)
PLAYORDER=
